<?xml version="1.0" encoding="UTF-8" standalone="no"?>
<!DOCTYPE svg PUBLIC "-//W3C//DTD SVG 1.1//EN"
 "http://www.w3.org/Graphics/SVG/1.1/DTD/svg11.dtd">
<!-- Generated by graphviz version 2.40.1 (20161225.0304)
 -->
<!-- Title: dependencies Pages: 1 -->
<svg width="7503pt" height="284pt"
 viewBox="0.00 0.00 7503.00 284.00" xmlns="http://www.w3.org/2000/svg" xmlns:xlink="http://www.w3.org/1999/xlink">
<g id="graph0" class="graph" transform="scale(1 1) rotate(0) translate(4 280)">
<title>dependencies</title>
<polygon fill="#ffffff" stroke="transparent" points="-4,4 -4,-280 7499,-280 7499,4 -4,4"/>
<text text-anchor="start" x="3726.5091" y="-42.4" font-family="sans-serif" font-weight="bold" font-size="14.00" fill="#000000">Legend</text>
<polygon fill="#ffffb3" stroke="transparent" points="3513.5,-10 3513.5,-30 3533.5,-30 3533.5,-10 3513.5,-10"/>
<text text-anchor="start" x="3537.129" y="-15.4" font-family="sans-serif" font-size="14.00" fill="#000000"> &#160;Declarations</text>
<polygon fill="#8dd3c7" stroke="transparent" points="3626.5,-10 3626.5,-30 3646.5,-30 3646.5,-10 3626.5,-10"/>
<text text-anchor="start" x="3650.2251" y="-15.4" font-family="sans-serif" font-size="14.00" fill="#000000"> &#160;Module</text>
<polygon fill="#80b1d3" stroke="transparent" points="3712.5,-10 3712.5,-30 3732.5,-30 3732.5,-10 3712.5,-10"/>
<text text-anchor="start" x="3736.2812" y="-15.4" font-family="sans-serif" font-size="14.00" fill="#000000"> &#160;Bootstrap</text>
<polygon fill="#fdb462" stroke="transparent" points="3809.5,-10 3809.5,-30 3829.5,-30 3829.5,-10 3809.5,-10"/>
<text text-anchor="start" x="3833.1732" y="-15.4" font-family="sans-serif" font-size="14.00" fill="#000000"> &#160;Providers</text>
<polygon fill="#fb8072" stroke="transparent" points="3905.5,-10 3905.5,-30 3925.5,-30 3925.5,-10 3905.5,-10"/>
<text text-anchor="start" x="3929.2258" y="-15.4" font-family="sans-serif" font-size="14.00" fill="#000000"> &#160;Exports</text>
<g id="clust1" class="cluster">
<title>cluster_AppModule</title>
<polygon fill="none" stroke="#000000" stroke-dasharray="1,5" points="8,-70 8,-268 7487,-268 7487,-70 8,-70"/>
</g>
<g id="clust2" class="cluster">
<title>cluster_AppModule_declarations</title>
<polygon fill="none" stroke="#000000" points="696,-78 696,-130 7479,-130 7479,-78 696,-78"/>
</g>
<g id="clust41" class="cluster">
<title>cluster_AppModule_imports</title>
<polygon fill="none" stroke="#000000" points="544,-78 544,-130 688,-130 688,-78 544,-78"/>
</g>
<g id="clust43" class="cluster">
<title>cluster_AppModule_bootstrap</title>
<polygon fill="none" stroke="#000000" points="3795,-208 3795,-260 3919,-260 3919,-208 3795,-208"/>
</g>
<g id="clust44" class="cluster">
<title>cluster_AppModule_providers</title>
<polygon fill="none" stroke="#000000" points="16,-78 16,-130 536,-130 536,-78 16,-78"/>
</g>
<!-- AdministrarDocenteComponent -->
<g id="node1" class="node">
<title>AdministrarDocenteComponent</title>
<polygon fill="#ffffb3" stroke="#000000" points="7470.6232,-122 7275.3768,-122 7275.3768,-86 7470.6232,-86 7470.6232,-122"/>
<text text-anchor="middle" x="7373" y="-99.8" font-family="Times,serif" font-size="14.00" fill="#000000">AdministrarDocenteComponent</text>
</g>
<!-- AppModule -->
<g id="node39" class="node">
<title>AppModule</title>
<polygon fill="#8dd3c7" stroke="#000000" points="3898.6571,-187 3895.6571,-191 3874.6571,-191 3871.6571,-187 3815.3429,-187 3815.3429,-151 3898.6571,-151 3898.6571,-187"/>
<text text-anchor="middle" x="3857" y="-164.8" font-family="Times,serif" font-size="14.00" fill="#000000">AppModule</text>
</g>
<!-- AdministrarDocenteComponent&#45;&gt;AppModule -->
<g id="edge1" class="edge">
<title>AdministrarDocenteComponent&#45;&gt;AppModule</title>
<path fill="none" stroke="#000000" d="M7373,-122.1985C7373,-146.3563 7373,-186 7373,-186 7373,-186 3908.9357,-186 3908.9357,-186"/>
<polygon fill="#000000" stroke="#000000" points="3908.9358,-182.5001 3898.9357,-186 3908.9357,-189.5001 3908.9358,-182.5001"/>
</g>
<!-- AppComponent -->
<g id="node2" class="node">
<title>AppComponent</title>
<polygon fill="#ffffb3" stroke="#000000" points="7256.9399,-122 7151.0601,-122 7151.0601,-86 7256.9399,-86 7256.9399,-122"/>
<text text-anchor="middle" x="7204" y="-99.8" font-family="Times,serif" font-size="14.00" fill="#000000">AppComponent</text>
</g>
<!-- AppComponent&#45;&gt;AppModule -->
<g id="edge2" class="edge">
<title>AppComponent&#45;&gt;AppModule</title>
<path fill="none" stroke="#000000" d="M7204,-122.1532C7204,-145.7566 7204,-184 7204,-184 7204,-184 3908.7126,-184 3908.7126,-184"/>
<polygon fill="#000000" stroke="#000000" points="3908.7126,-180.5001 3898.7126,-184 3908.7126,-187.5001 3908.7126,-180.5001"/>
</g>
<!-- BorrarActividadComponent -->
<g id="node3" class="node">
<title>BorrarActividadComponent</title>
<polygon fill="#ffffb3" stroke="#000000" points="7133.573,-122 6960.427,-122 6960.427,-86 7133.573,-86 7133.573,-122"/>
<text text-anchor="middle" x="7047" y="-99.8" font-family="Times,serif" font-size="14.00" fill="#000000">BorrarActividadComponent</text>
</g>
<!-- BorrarActividadComponent&#45;&gt;AppModule -->
<g id="edge3" class="edge">
<title>BorrarActividadComponent&#45;&gt;AppModule</title>
<path fill="none" stroke="#000000" d="M7047,-122.0908C7047,-145.1328 7047,-182 7047,-182 7047,-182 3908.7942,-182 3908.7942,-182"/>
<polygon fill="#000000" stroke="#000000" points="3908.7943,-178.5001 3898.7942,-182 3908.7942,-185.5001 3908.7943,-178.5001"/>
</g>
<!-- BorrarContenidoComponent -->
<g id="node4" class="node">
<title>BorrarContenidoComponent</title>
<polygon fill="#ffffb3" stroke="#000000" points="6942.1979,-122 6765.8021,-122 6765.8021,-86 6942.1979,-86 6942.1979,-122"/>
<text text-anchor="middle" x="6854" y="-99.8" font-family="Times,serif" font-size="14.00" fill="#000000">BorrarContenidoComponent</text>
</g>
<!-- BorrarContenidoComponent&#45;&gt;AppModule -->
<g id="edge4" class="edge">
<title>BorrarContenidoComponent&#45;&gt;AppModule</title>
<path fill="none" stroke="#000000" d="M6854,-122.2479C6854,-145.0179 6854,-181 6854,-181 6854,-181 3908.7944,-181 3908.7944,-181"/>
<polygon fill="#000000" stroke="#000000" points="3908.7945,-177.5001 3898.7944,-181 3908.7944,-184.5001 3908.7945,-177.5001"/>
</g>
<!-- BusquedaComponent -->
<g id="node5" class="node">
<title>BusquedaComponent</title>
<polygon fill="#ffffb3" stroke="#000000" points="6748.0436,-122 6611.9564,-122 6611.9564,-86 6748.0436,-86 6748.0436,-122"/>
<text text-anchor="middle" x="6680" y="-99.8" font-family="Times,serif" font-size="14.00" fill="#000000">BusquedaComponent</text>
</g>
<!-- BusquedaComponent&#45;&gt;AppModule -->
<g id="edge5" class="edge">
<title>BusquedaComponent&#45;&gt;AppModule</title>
<path fill="none" stroke="#000000" d="M6680,-122.1554C6680,-144.3519 6680,-179 6680,-179 6680,-179 3908.8203,-179 3908.8203,-179"/>
<polygon fill="#000000" stroke="#000000" points="3908.8203,-175.5001 3898.8203,-179 3908.8202,-182.5001 3908.8203,-175.5001"/>
</g>
<!-- BusquedaVisitanteComponent -->
<g id="node6" class="node">
<title>BusquedaVisitanteComponent</title>
<polygon fill="#ffffb3" stroke="#000000" points="6593.5856,-122 6406.4144,-122 6406.4144,-86 6593.5856,-86 6593.5856,-122"/>
<text text-anchor="middle" x="6500" y="-99.8" font-family="Times,serif" font-size="14.00" fill="#000000">BusquedaVisitanteComponent</text>
</g>
<!-- BusquedaVisitanteComponent&#45;&gt;AppModule -->
<g id="edge6" class="edge">
<title>BusquedaVisitanteComponent&#45;&gt;AppModule</title>
<path fill="none" stroke="#000000" d="M6500,-122.0449C6500,-143.6623 6500,-177 6500,-177 6500,-177 3908.7816,-177 3908.7816,-177"/>
<polygon fill="#000000" stroke="#000000" points="3908.7817,-173.5001 3898.7816,-177 3908.7816,-180.5001 3908.7817,-173.5001"/>
</g>
<!-- CrearActividadComponent -->
<g id="node7" class="node">
<title>CrearActividadComponent</title>
<polygon fill="#ffffb3" stroke="#000000" points="6388.6274,-122 6221.3726,-122 6221.3726,-86 6388.6274,-86 6388.6274,-122"/>
<text text-anchor="middle" x="6305" y="-99.8" font-family="Times,serif" font-size="14.00" fill="#000000">CrearActividadComponent</text>
</g>
<!-- CrearActividadComponent&#45;&gt;AppModule -->
<g id="edge7" class="edge">
<title>CrearActividadComponent&#45;&gt;AppModule</title>
<path fill="none" stroke="#000000" d="M6305,-122.2843C6305,-143.3211 6305,-175 6305,-175 6305,-175 3908.7182,-175 3908.7182,-175"/>
<polygon fill="#000000" stroke="#000000" points="3908.7182,-171.5001 3898.7182,-175 3908.7181,-178.5001 3908.7182,-171.5001"/>
</g>
<!-- DudasComponent -->
<g id="node8" class="node">
<title>DudasComponent</title>
<polygon fill="#ffffb3" stroke="#000000" points="6203.5982,-122 6086.4018,-122 6086.4018,-86 6203.5982,-86 6203.5982,-122"/>
<text text-anchor="middle" x="6145" y="-99.8" font-family="Times,serif" font-size="14.00" fill="#000000">DudasComponent</text>
</g>
<!-- DudasComponent&#45;&gt;AppModule -->
<g id="edge8" class="edge">
<title>DudasComponent&#45;&gt;AppModule</title>
<path fill="none" stroke="#000000" d="M6145,-122.0267C6145,-142.7672 6145,-174 6145,-174 6145,-174 3908.6657,-174 3908.6657,-174"/>
<polygon fill="#000000" stroke="#000000" points="3908.6657,-170.5001 3898.6657,-174 3908.6656,-177.5001 3908.6657,-170.5001"/>
</g>
<!-- FilterActividadDeletePipe -->
<g id="node9" class="node">
<title>FilterActividadDeletePipe</title>
<polygon fill="#ffffb3" stroke="#000000" points="6068.4566,-122 5905.5434,-122 5905.5434,-86 6068.4566,-86 6068.4566,-122"/>
<text text-anchor="middle" x="5987" y="-99.8" font-family="Times,serif" font-size="14.00" fill="#000000">FilterActividadDeletePipe</text>
</g>
<!-- FilterActividadDeletePipe&#45;&gt;AppModule -->
<g id="edge9" class="edge">
<title>FilterActividadDeletePipe&#45;&gt;AppModule</title>
<path fill="none" stroke="#000000" d="M5987,-122.2228C5987,-142.3652 5987,-172 5987,-172 5987,-172 3909.0688,-172 3909.0688,-172"/>
<polygon fill="#000000" stroke="#000000" points="3909.0688,-168.5001 3899.0688,-172 3909.0687,-175.5001 3909.0688,-168.5001"/>
</g>
<!-- FilterActividadPipe -->
<g id="node10" class="node">
<title>FilterActividadPipe</title>
<polygon fill="#ffffb3" stroke="#000000" points="5887.4257,-122 5760.5743,-122 5760.5743,-86 5887.4257,-86 5887.4257,-122"/>
<text text-anchor="middle" x="5824" y="-99.8" font-family="Times,serif" font-size="14.00" fill="#000000">FilterActividadPipe</text>
</g>
<!-- FilterActividadPipe&#45;&gt;AppModule -->
<g id="edge10" class="edge">
<title>FilterActividadPipe&#45;&gt;AppModule</title>
<path fill="none" stroke="#000000" d="M5824,-122.0348C5824,-141.5762 5824,-170 5824,-170 5824,-170 3908.9936,-170 3908.9936,-170"/>
<polygon fill="#000000" stroke="#000000" points="3908.9936,-166.5001 3898.9936,-170 3908.9936,-173.5001 3908.9936,-166.5001"/>
</g>
<!-- FilterColegioAdminPipe -->
<g id="node11" class="node">
<title>FilterColegioAdminPipe</title>
<polygon fill="#ffffb3" stroke="#000000" points="5743.4382,-122 5588.5618,-122 5588.5618,-86 5743.4382,-86 5743.4382,-122"/>
<text text-anchor="middle" x="5666" y="-99.8" font-family="Times,serif" font-size="14.00" fill="#000000">FilterColegioAdminPipe</text>
</g>
<!-- FilterColegioAdminPipe&#45;&gt;AppModule -->
<g id="edge11" class="edge">
<title>FilterColegioAdminPipe&#45;&gt;AppModule</title>
<path fill="none" stroke="#000000" d="M5666,-122.1061C5666,-141.3391 5666,-169 5666,-169 5666,-169 3909.0534,-169 3909.0534,-169"/>
<polygon fill="#000000" stroke="#000000" points="3909.0534,-165.5001 3899.0534,-169 3909.0533,-172.5001 3909.0534,-165.5001"/>
</g>
<!-- FilterCompetenciaAdminPipe -->
<g id="node12" class="node">
<title>FilterCompetenciaAdminPipe</title>
<polygon fill="#ffffb3" stroke="#000000" points="5570.972,-122 5387.028,-122 5387.028,-86 5570.972,-86 5570.972,-122"/>
<text text-anchor="middle" x="5479" y="-99.8" font-family="Times,serif" font-size="14.00" fill="#000000">FilterCompetenciaAdminPipe</text>
</g>
<!-- FilterCompetenciaAdminPipe&#45;&gt;AppModule -->
<g id="edge12" class="edge">
<title>FilterCompetenciaAdminPipe&#45;&gt;AppModule</title>
<path fill="none" stroke="#000000" d="M5479,-122.2222C5479,-140.8285 5479,-167 5479,-167 5479,-167 3908.7246,-167 3908.7246,-167"/>
<polygon fill="#000000" stroke="#000000" points="3908.7246,-163.5001 3898.7246,-167 3908.7245,-170.5001 3908.7246,-163.5001"/>
</g>
<!-- FilterCompetenciaPipe -->
<g id="node13" class="node">
<title>FilterCompetenciaPipe</title>
<polygon fill="#ffffb3" stroke="#000000" points="5368.5842,-122 5223.4158,-122 5223.4158,-86 5368.5842,-86 5368.5842,-122"/>
<text text-anchor="middle" x="5296" y="-99.8" font-family="Times,serif" font-size="14.00" fill="#000000">FilterCompetenciaPipe</text>
</g>
<!-- FilterCompetenciaPipe&#45;&gt;AppModule -->
<g id="edge13" class="edge">
<title>FilterCompetenciaPipe&#45;&gt;AppModule</title>
<path fill="none" stroke="#000000" d="M5296,-122.302C5296,-140.2699 5296,-165 5296,-165 5296,-165 3908.9001,-165 3908.9001,-165"/>
<polygon fill="#000000" stroke="#000000" points="3908.9001,-161.5001 3898.9001,-165 3908.9,-168.5001 3908.9001,-161.5001"/>
</g>
<!-- FilterContentDeletePipe -->
<g id="node14" class="node">
<title>FilterContentDeletePipe</title>
<polygon fill="#ffffb3" stroke="#000000" points="5205.0814,-122 5052.9186,-122 5052.9186,-86 5205.0814,-86 5205.0814,-122"/>
<text text-anchor="middle" x="5129" y="-99.8" font-family="Times,serif" font-size="14.00" fill="#000000">FilterContentDeletePipe</text>
</g>
<!-- FilterContentDeletePipe&#45;&gt;AppModule -->
<g id="edge14" class="edge">
<title>FilterContentDeletePipe&#45;&gt;AppModule</title>
<path fill="none" stroke="#000000" d="M5129,-122.0225C5129,-139.3734 5129,-163 5129,-163 5129,-163 3908.9594,-163 3908.9594,-163"/>
<polygon fill="#000000" stroke="#000000" points="3908.9595,-159.5001 3898.9594,-163 3908.9594,-166.5001 3908.9595,-159.5001"/>
</g>
<!-- FilterContentPipe -->
<g id="node15" class="node">
<title>FilterContentPipe</title>
<polygon fill="#ffffb3" stroke="#000000" points="5034.5507,-122 4919.4493,-122 4919.4493,-86 5034.5507,-86 5034.5507,-122"/>
<text text-anchor="middle" x="4977" y="-99.8" font-family="Times,serif" font-size="14.00" fill="#000000">FilterContentPipe</text>
</g>
<!-- FilterContentPipe&#45;&gt;AppModule -->
<g id="edge15" class="edge">
<title>FilterContentPipe&#45;&gt;AppModule</title>
<path fill="none" stroke="#000000" d="M4977,-122.0336C4977,-139.0597 4977,-162 4977,-162 4977,-162 3908.8612,-162 3908.8612,-162"/>
<polygon fill="#000000" stroke="#000000" points="3908.8613,-158.5001 3898.8612,-162 3908.8612,-165.5001 3908.8613,-158.5001"/>
</g>
<!-- FilterDocenteAdminPipe -->
<g id="node16" class="node">
<title>FilterDocenteAdminPipe</title>
<polygon fill="#ffffb3" stroke="#000000" points="4901.2464,-122 4744.7536,-122 4744.7536,-86 4901.2464,-86 4901.2464,-122"/>
<text text-anchor="middle" x="4823" y="-99.8" font-family="Times,serif" font-size="14.00" fill="#000000">FilterDocenteAdminPipe</text>
</g>
<!-- FilterDocenteAdminPipe&#45;&gt;AppModule -->
<g id="edge16" class="edge">
<title>FilterDocenteAdminPipe&#45;&gt;AppModule</title>
<path fill="none" stroke="#000000" d="M4823,-122.027C4823,-138.3976 4823,-160 4823,-160 4823,-160 3908.8179,-160 3908.8179,-160"/>
<polygon fill="#000000" stroke="#000000" points="3908.8179,-156.5001 3898.8179,-160 3908.8178,-163.5001 3908.8179,-156.5001"/>
</g>
<!-- FilterDudaPipe -->
<g id="node17" class="node">
<title>FilterDudaPipe</title>
<polygon fill="#ffffb3" stroke="#000000" points="4726.5396,-122 4625.4604,-122 4625.4604,-86 4726.5396,-86 4726.5396,-122"/>
<text text-anchor="middle" x="4676" y="-99.8" font-family="Times,serif" font-size="14.00" fill="#000000">FilterDudaPipe</text>
</g>
<!-- FilterDudaPipe&#45;&gt;AppModule -->
<g id="edge17" class="edge">
<title>FilterDudaPipe&#45;&gt;AppModule</title>
<path fill="none" stroke="#000000" d="M4676,-122.2819C4676,-137.9478 4676,-158 4676,-158 4676,-158 3908.7403,-158 3908.7403,-158"/>
<polygon fill="#000000" stroke="#000000" points="3908.7403,-154.5001 3898.7403,-158 3908.7403,-161.5001 3908.7403,-154.5001"/>
</g>
<!-- FilterEstudianteMetricasPipe -->
<g id="node18" class="node">
<title>FilterEstudianteMetricasPipe</title>
<polygon fill="#ffffb3" stroke="#000000" points="4607.7906,-122 4428.2094,-122 4428.2094,-86 4607.7906,-86 4607.7906,-122"/>
<text text-anchor="middle" x="4518" y="-99.8" font-family="Times,serif" font-size="14.00" fill="#000000">FilterEstudianteMetricasPipe</text>
</g>
<!-- FilterEstudianteMetricasPipe&#45;&gt;AppModule -->
<g id="edge18" class="edge">
<title>FilterEstudianteMetricasPipe&#45;&gt;AppModule</title>
<path fill="none" stroke="#000000" d="M4518,-122.2396C4518,-137.5706 4518,-157 4518,-157 4518,-157 3908.85,-157 3908.85,-157"/>
<polygon fill="#000000" stroke="#000000" points="3908.85,-153.5001 3898.85,-157 3908.8499,-160.5001 3908.85,-153.5001"/>
</g>
<!-- FilterEstudiantesAdminPipe -->
<g id="node19" class="node">
<title>FilterEstudiantesAdminPipe</title>
<polygon fill="#ffffb3" stroke="#000000" points="4410.1484,-122 4235.8516,-122 4235.8516,-86 4410.1484,-86 4410.1484,-122"/>
<text text-anchor="middle" x="4323" y="-99.8" font-family="Times,serif" font-size="14.00" fill="#000000">FilterEstudiantesAdminPipe</text>
</g>
<!-- FilterEstudiantesAdminPipe&#45;&gt;AppModule -->
<g id="edge19" class="edge">
<title>FilterEstudiantesAdminPipe&#45;&gt;AppModule</title>
<path fill="none" stroke="#000000" d="M4323,-122.1243C4323,-136.7832 4323,-155 4323,-155 4323,-155 3908.7645,-155 3908.7645,-155"/>
<polygon fill="#000000" stroke="#000000" points="3908.7645,-151.5001 3898.7645,-155 3908.7645,-158.5001 3908.7645,-151.5001"/>
</g>
<!-- FilterMateriaactivaAdminPipe -->
<g id="node20" class="node">
<title>FilterMateriaactivaAdminPipe</title>
<polygon fill="#ffffb3" stroke="#000000" points="4217.5604,-122 4030.4396,-122 4030.4396,-86 4217.5604,-86 4217.5604,-122"/>
<text text-anchor="middle" x="4124" y="-99.8" font-family="Times,serif" font-size="14.00" fill="#000000">FilterMateriaactivaAdminPipe</text>
</g>
<!-- FilterMateriaactivaAdminPipe&#45;&gt;AppModule -->
<g id="edge20" class="edge">
<title>FilterMateriaactivaAdminPipe&#45;&gt;AppModule</title>
<path fill="none" stroke="#000000" d="M4124,-122.2458C4124,-136.1772 4124,-153 4124,-153 4124,-153 3908.7188,-153 3908.7188,-153"/>
<polygon fill="#000000" stroke="#000000" points="3908.7188,-149.5001 3898.7188,-153 3908.7187,-156.5001 3908.7188,-149.5001"/>
</g>
<!-- FilterMiMateriaPipe -->
<g id="node21" class="node">
<title>FilterMiMateriaPipe</title>
<polygon fill="#ffffb3" stroke="#000000" points="4012.5828,-122 3881.4172,-122 3881.4172,-86 4012.5828,-86 4012.5828,-122"/>
<text text-anchor="middle" x="3947" y="-99.8" font-family="Times,serif" font-size="14.00" fill="#000000">FilterMiMateriaPipe</text>
</g>
<!-- FilterMiMateriaPipe&#45;&gt;AppModule -->
<g id="edge21" class="edge">
<title>FilterMiMateriaPipe&#45;&gt;AppModule</title>
<path fill="none" stroke="#000000" d="M3890.1434,-122.1061C3890.1434,-122.1061 3890.1434,-140.991 3890.1434,-140.991"/>
<polygon fill="#000000" stroke="#000000" points="3886.6435,-140.9909 3890.1434,-150.991 3893.6435,-140.991 3886.6435,-140.9909"/>
</g>
<!-- FilterTableMateriaDocentePipe -->
<g id="node22" class="node">
<title>FilterTableMateriaDocentePipe</title>
<polygon fill="#ffffb3" stroke="#000000" points="3863.7612,-122 3670.2388,-122 3670.2388,-86 3863.7612,-86 3863.7612,-122"/>
<text text-anchor="middle" x="3767" y="-99.8" font-family="Times,serif" font-size="14.00" fill="#000000">FilterTableMateriaDocentePipe</text>
</g>
<!-- FilterTableMateriaDocentePipe&#45;&gt;AppModule -->
<g id="edge22" class="edge">
<title>FilterTableMateriaDocentePipe&#45;&gt;AppModule</title>
<path fill="none" stroke="#000000" d="M3839.4012,-122.1061C3839.4012,-122.1061 3839.4012,-140.991 3839.4012,-140.991"/>
<polygon fill="#000000" stroke="#000000" points="3835.9012,-140.9909 3839.4012,-150.991 3842.9012,-140.991 3835.9012,-140.9909"/>
</g>
<!-- FilterTallerPipe -->
<g id="node23" class="node">
<title>FilterTallerPipe</title>
<polygon fill="#ffffb3" stroke="#000000" points="3652.1416,-122 3547.8584,-122 3547.8584,-86 3652.1416,-86 3652.1416,-122"/>
<text text-anchor="middle" x="3600" y="-99.8" font-family="Times,serif" font-size="14.00" fill="#000000">FilterTallerPipe</text>
</g>
<!-- FilterTallerPipe&#45;&gt;AppModule -->
<g id="edge23" class="edge">
<title>FilterTallerPipe&#45;&gt;AppModule</title>
<path fill="none" stroke="#000000" d="M3600,-122.2458C3600,-136.1772 3600,-153 3600,-153 3600,-153 3805.1365,-153 3805.1365,-153"/>
<polygon fill="#000000" stroke="#000000" points="3805.1366,-156.5001 3815.1365,-153 3805.1365,-149.5001 3805.1366,-156.5001"/>
</g>
<!-- FooterComponent -->
<g id="node24" class="node">
<title>FooterComponent</title>
<polygon fill="#ffffb3" stroke="#000000" points="3529.8809,-122 3412.1191,-122 3412.1191,-86 3529.8809,-86 3529.8809,-122"/>
<text text-anchor="middle" x="3471" y="-99.8" font-family="Times,serif" font-size="14.00" fill="#000000">FooterComponent</text>
</g>
<!-- FooterComponent&#45;&gt;AppModule -->
<g id="edge24" class="edge">
<title>FooterComponent&#45;&gt;AppModule</title>
<path fill="none" stroke="#000000" d="M3471,-122.1243C3471,-136.7832 3471,-155 3471,-155 3471,-155 3805.3245,-155 3805.3245,-155"/>
<polygon fill="#000000" stroke="#000000" points="3805.3245,-158.5001 3815.3245,-155 3805.3245,-151.5001 3805.3245,-158.5001"/>
</g>
<!-- GestionarColegioAdminComponent -->
<g id="node25" class="node">
<title>GestionarColegioAdminComponent</title>
<polygon fill="#ffffb3" stroke="#000000" points="3394.4748,-122 3175.5252,-122 3175.5252,-86 3394.4748,-86 3394.4748,-122"/>
<text text-anchor="middle" x="3285" y="-99.8" font-family="Times,serif" font-size="14.00" fill="#000000">GestionarColegioAdminComponent</text>
</g>
<!-- GestionarColegioAdminComponent&#45;&gt;AppModule -->
<g id="edge25" class="edge">
<title>GestionarColegioAdminComponent&#45;&gt;AppModule</title>
<path fill="none" stroke="#000000" d="M3285,-122.2396C3285,-137.5706 3285,-157 3285,-157 3285,-157 3804.9395,-157 3804.9395,-157"/>
<polygon fill="#000000" stroke="#000000" points="3804.9395,-160.5001 3814.9395,-157 3804.9394,-153.5001 3804.9395,-160.5001"/>
</g>
<!-- GestionarCompetenciasAdminComponent -->
<g id="node26" class="node">
<title>GestionarCompetenciasAdminComponent</title>
<polygon fill="#ffffb3" stroke="#000000" points="3157.9538,-122 2904.0462,-122 2904.0462,-86 3157.9538,-86 3157.9538,-122"/>
<text text-anchor="middle" x="3031" y="-99.8" font-family="Times,serif" font-size="14.00" fill="#000000">GestionarCompetenciasAdminComponent</text>
</g>
<!-- GestionarCompetenciasAdminComponent&#45;&gt;AppModule -->
<g id="edge26" class="edge">
<title>GestionarCompetenciasAdminComponent&#45;&gt;AppModule</title>
<path fill="none" stroke="#000000" d="M3031,-122.2819C3031,-137.9478 3031,-158 3031,-158 3031,-158 3805.1881,-158 3805.1881,-158"/>
<polygon fill="#000000" stroke="#000000" points="3805.1882,-161.5001 3815.1881,-158 3805.1881,-154.5001 3805.1882,-161.5001"/>
</g>
<!-- GestionarUsuariosAdminComponent -->
<g id="node27" class="node">
<title>GestionarUsuariosAdminComponent</title>
<polygon fill="#ffffb3" stroke="#000000" points="2886.4044,-122 2661.5956,-122 2661.5956,-86 2886.4044,-86 2886.4044,-122"/>
<text text-anchor="middle" x="2774" y="-99.8" font-family="Times,serif" font-size="14.00" fill="#000000">GestionarUsuariosAdminComponent</text>
</g>
<!-- GestionarUsuariosAdminComponent&#45;&gt;AppModule -->
<g id="edge27" class="edge">
<title>GestionarUsuariosAdminComponent&#45;&gt;AppModule</title>
<path fill="none" stroke="#000000" d="M2774,-122.027C2774,-138.3976 2774,-160 2774,-160 2774,-160 3805.2087,-160 3805.2087,-160"/>
<polygon fill="#000000" stroke="#000000" points="3805.2087,-163.5001 3815.2087,-160 3805.2087,-156.5001 3805.2087,-163.5001"/>
</g>
<!-- HeaderAdminComponent -->
<g id="node28" class="node">
<title>HeaderAdminComponent</title>
<polygon fill="#ffffb3" stroke="#000000" points="2643.1316,-122 2482.8684,-122 2482.8684,-86 2643.1316,-86 2643.1316,-122"/>
<text text-anchor="middle" x="2563" y="-99.8" font-family="Times,serif" font-size="14.00" fill="#000000">HeaderAdminComponent</text>
</g>
<!-- HeaderAdminComponent&#45;&gt;AppModule -->
<g id="edge28" class="edge">
<title>HeaderAdminComponent&#45;&gt;AppModule</title>
<path fill="none" stroke="#000000" d="M2563,-122.0336C2563,-139.0597 2563,-162 2563,-162 2563,-162 3805.0477,-162 3805.0477,-162"/>
<polygon fill="#000000" stroke="#000000" points="3805.0477,-165.5001 3815.0477,-162 3805.0476,-158.5001 3805.0477,-165.5001"/>
</g>
<!-- HeaderComponent -->
<g id="node29" class="node">
<title>HeaderComponent</title>
<polygon fill="#ffffb3" stroke="#000000" points="2464.7437,-122 2343.2563,-122 2343.2563,-86 2464.7437,-86 2464.7437,-122"/>
<text text-anchor="middle" x="2404" y="-99.8" font-family="Times,serif" font-size="14.00" fill="#000000">HeaderComponent</text>
</g>
<!-- HeaderComponent&#45;&gt;AppModule -->
<g id="edge29" class="edge">
<title>HeaderComponent&#45;&gt;AppModule</title>
<path fill="none" stroke="#000000" d="M2404,-122.0225C2404,-139.3734 2404,-163 2404,-163 2404,-163 3805.0815,-163 3805.0815,-163"/>
<polygon fill="#000000" stroke="#000000" points="3805.0816,-166.5001 3815.0815,-163 3805.0815,-159.5001 3805.0816,-166.5001"/>
</g>
<!-- HeaderVisitanteComponent -->
<g id="node30" class="node">
<title>HeaderVisitanteComponent</title>
<polygon fill="#ffffb3" stroke="#000000" points="2325.2864,-122 2152.7136,-122 2152.7136,-86 2325.2864,-86 2325.2864,-122"/>
<text text-anchor="middle" x="2239" y="-99.8" font-family="Times,serif" font-size="14.00" fill="#000000">HeaderVisitanteComponent</text>
</g>
<!-- HeaderVisitanteComponent&#45;&gt;AppModule -->
<g id="edge30" class="edge">
<title>HeaderVisitanteComponent&#45;&gt;AppModule</title>
<path fill="none" stroke="#000000" d="M2239,-122.302C2239,-140.2699 2239,-165 2239,-165 2239,-165 3804.9671,-165 3804.9671,-165"/>
<polygon fill="#000000" stroke="#000000" points="3804.9672,-168.5001 3814.9671,-165 3804.9671,-161.5001 3804.9672,-168.5001"/>
</g>
<!-- InfromacionDocenteComponent -->
<g id="node31" class="node">
<title>InfromacionDocenteComponent</title>
<polygon fill="#ffffb3" stroke="#000000" points="2134.6657,-122 1937.3343,-122 1937.3343,-86 2134.6657,-86 2134.6657,-122"/>
<text text-anchor="middle" x="2036" y="-99.8" font-family="Times,serif" font-size="14.00" fill="#000000">InfromacionDocenteComponent</text>
</g>
<!-- InfromacionDocenteComponent&#45;&gt;AppModule -->
<g id="edge31" class="edge">
<title>InfromacionDocenteComponent&#45;&gt;AppModule</title>
<path fill="none" stroke="#000000" d="M2036,-122.2222C2036,-140.8285 2036,-167 2036,-167 2036,-167 3805.1071,-167 3805.1071,-167"/>
<polygon fill="#000000" stroke="#000000" points="3805.1071,-170.5001 3815.1071,-167 3805.1071,-163.5001 3805.1071,-170.5001"/>
</g>
<!-- InicioAdminComponent -->
<g id="node32" class="node">
<title>InicioAdminComponent</title>
<polygon fill="#ffffb3" stroke="#000000" points="1919.3766,-122 1766.6234,-122 1766.6234,-86 1919.3766,-86 1919.3766,-122"/>
<text text-anchor="middle" x="1843" y="-99.8" font-family="Times,serif" font-size="14.00" fill="#000000">InicioAdminComponent</text>
</g>
<!-- InicioAdminComponent&#45;&gt;AppModule -->
<g id="edge32" class="edge">
<title>InicioAdminComponent&#45;&gt;AppModule</title>
<path fill="none" stroke="#000000" d="M1843,-122.1061C1843,-141.3391 1843,-169 1843,-169 1843,-169 3804.9347,-169 3804.9347,-169"/>
<polygon fill="#000000" stroke="#000000" points="3804.9348,-172.5001 3814.9347,-169 3804.9347,-165.5001 3804.9348,-172.5001"/>
</g>
<!-- InicioProfesoresComponent -->
<g id="node33" class="node">
<title>InicioProfesoresComponent</title>
<polygon fill="#ffffb3" stroke="#000000" points="1748.5716,-122 1575.4284,-122 1575.4284,-86 1748.5716,-86 1748.5716,-122"/>
<text text-anchor="middle" x="1662" y="-99.8" font-family="Times,serif" font-size="14.00" fill="#000000">InicioProfesoresComponent</text>
</g>
<!-- InicioProfesoresComponent&#45;&gt;AppModule -->
<g id="edge33" class="edge">
<title>InicioProfesoresComponent&#45;&gt;AppModule</title>
<path fill="none" stroke="#000000" d="M1662,-122.0348C1662,-141.5762 1662,-170 1662,-170 1662,-170 3805.112,-170 3805.112,-170"/>
<polygon fill="#000000" stroke="#000000" points="3805.112,-173.5001 3815.112,-170 3805.1119,-166.5001 3805.112,-173.5001"/>
</g>
<!-- LoginComponent -->
<g id="node34" class="node">
<title>LoginComponent</title>
<polygon fill="#ffffb3" stroke="#000000" points="1557.2758,-122 1442.7242,-122 1442.7242,-86 1557.2758,-86 1557.2758,-122"/>
<text text-anchor="middle" x="1500" y="-99.8" font-family="Times,serif" font-size="14.00" fill="#000000">LoginComponent</text>
</g>
<!-- LoginComponent&#45;&gt;AppModule -->
<g id="edge34" class="edge">
<title>LoginComponent&#45;&gt;AppModule</title>
<path fill="none" stroke="#000000" d="M1500,-122.2228C1500,-142.3652 1500,-172 1500,-172 1500,-172 3805.3407,-172 3805.3407,-172"/>
<polygon fill="#000000" stroke="#000000" points="3805.3407,-175.5001 3815.3407,-172 3805.3406,-168.5001 3805.3407,-175.5001"/>
</g>
<!-- MetricasComponent -->
<g id="node35" class="node">
<title>MetricasComponent</title>
<polygon fill="#ffffb3" stroke="#000000" points="1424.3076,-122 1293.6924,-122 1293.6924,-86 1424.3076,-86 1424.3076,-122"/>
<text text-anchor="middle" x="1359" y="-99.8" font-family="Times,serif" font-size="14.00" fill="#000000">MetricasComponent</text>
</g>
<!-- MetricasComponent&#45;&gt;AppModule -->
<g id="edge35" class="edge">
<title>MetricasComponent&#45;&gt;AppModule</title>
<path fill="none" stroke="#000000" d="M1359,-122.0267C1359,-142.7672 1359,-174 1359,-174 1359,-174 3805.2102,-174 3805.2102,-174"/>
<polygon fill="#000000" stroke="#000000" points="3805.2102,-177.5001 3815.2102,-174 3805.2102,-170.5001 3805.2102,-177.5001"/>
</g>
<!-- ModificarActividadComponent -->
<g id="node36" class="node">
<title>ModificarActividadComponent</title>
<polygon fill="#ffffb3" stroke="#000000" points="1276.0168,-122 1083.9832,-122 1083.9832,-86 1276.0168,-86 1276.0168,-122"/>
<text text-anchor="middle" x="1180" y="-99.8" font-family="Times,serif" font-size="14.00" fill="#000000">ModificarActividadComponent</text>
</g>
<!-- ModificarActividadComponent&#45;&gt;AppModule -->
<g id="edge36" class="edge">
<title>ModificarActividadComponent&#45;&gt;AppModule</title>
<path fill="none" stroke="#000000" d="M1180,-122.2843C1180,-143.3211 1180,-175 1180,-175 1180,-175 3805.2198,-175 3805.2198,-175"/>
<polygon fill="#000000" stroke="#000000" points="3805.2198,-178.5001 3815.2198,-175 3805.2197,-171.5001 3805.2198,-178.5001"/>
</g>
<!-- RegistroUsuarioComponent -->
<g id="node37" class="node">
<title>RegistroUsuarioComponent</title>
<polygon fill="#ffffb3" stroke="#000000" points="1065.587,-122 892.413,-122 892.413,-86 1065.587,-86 1065.587,-122"/>
<text text-anchor="middle" x="979" y="-99.8" font-family="Times,serif" font-size="14.00" fill="#000000">RegistroUsuarioComponent</text>
</g>
<!-- RegistroUsuarioComponent&#45;&gt;AppModule -->
<g id="edge37" class="edge">
<title>RegistroUsuarioComponent&#45;&gt;AppModule</title>
<path fill="none" stroke="#000000" d="M979,-122.0449C979,-143.6623 979,-177 979,-177 979,-177 3805.2063,-177 3805.2063,-177"/>
<polygon fill="#000000" stroke="#000000" points="3805.2063,-180.5001 3815.2063,-177 3805.2063,-173.5001 3805.2063,-180.5001"/>
</g>
<!-- SubirContenidoComponent -->
<g id="node38" class="node">
<title>SubirContenidoComponent</title>
<polygon fill="#ffffb3" stroke="#000000" points="873.9986,-122 704.0014,-122 704.0014,-86 873.9986,-86 873.9986,-122"/>
<text text-anchor="middle" x="789" y="-99.8" font-family="Times,serif" font-size="14.00" fill="#000000">SubirContenidoComponent</text>
</g>
<!-- SubirContenidoComponent&#45;&gt;AppModule -->
<g id="edge38" class="edge">
<title>SubirContenidoComponent&#45;&gt;AppModule</title>
<path fill="none" stroke="#000000" d="M789,-122.1554C789,-144.3519 789,-179 789,-179 789,-179 3805.0869,-179 3805.0869,-179"/>
<polygon fill="#000000" stroke="#000000" points="3805.0869,-182.5001 3815.0869,-179 3805.0868,-175.5001 3805.0869,-182.5001"/>
</g>
<!-- AppComponent  -->
<g id="node41" class="node">
<title>AppComponent </title>
<polygon fill="#80b1d3" stroke="#000000" points="3911.439,-252 3802.561,-252 3802.561,-216 3911.439,-216 3911.439,-252"/>
<text text-anchor="middle" x="3857" y="-229.8" font-family="Times,serif" font-size="14.00" fill="#000000">AppComponent </text>
</g>
<!-- AppModule&#45;&gt;AppComponent  -->
<g id="edge40" class="edge">
<title>AppModule&#45;&gt;AppComponent </title>
<path fill="none" stroke="#000000" stroke-dasharray="1,5" d="M3857,-187.1061C3857,-187.1061 3857,-205.991 3857,-205.991"/>
<polygon fill="#000000" stroke="#000000" points="3853.5001,-205.9909 3857,-215.991 3860.5001,-205.991 3853.5001,-205.9909"/>
</g>
<!-- AppRoutingModule -->
<g id="node40" class="node">
<title>AppRoutingModule</title>
<polygon fill="#8dd3c7" stroke="#000000" points="680.2744,-122 677.2744,-126 656.2744,-126 653.2744,-122 551.7256,-122 551.7256,-86 680.2744,-86 680.2744,-122"/>
<text text-anchor="middle" x="616" y="-99.8" font-family="Times,serif" font-size="14.00" fill="#000000">AppRoutingModule</text>
</g>
<!-- AppRoutingModule&#45;&gt;AppModule -->
<g id="edge39" class="edge">
<title>AppRoutingModule&#45;&gt;AppModule</title>
<path fill="none" stroke="#000000" d="M616,-122.2479C616,-145.0179 616,-181 616,-181 616,-181 3805.1343,-181 3805.1343,-181"/>
<polygon fill="#000000" stroke="#000000" points="3805.1343,-184.5001 3815.1343,-181 3805.1342,-177.5001 3805.1343,-184.5001"/>
</g>
<!-- ActividadService -->
<g id="node42" class="node">
<title>ActividadService</title>
<ellipse fill="#fdb462" stroke="#000000" cx="450" cy="-104" rx="78.1462" ry="18"/>
<text text-anchor="middle" x="450" y="-99.8" font-family="Times,serif" font-size="14.00" fill="#000000">ActividadService</text>
</g>
<!-- ActividadService&#45;&gt;AppModule -->
<g id="edge41" class="edge">
<title>ActividadService&#45;&gt;AppModule</title>
<path fill="none" stroke="#000000" d="M450,-122.0908C450,-145.1328 450,-182 450,-182 450,-182 3805.1521,-182 3805.1521,-182"/>
<polygon fill="#000000" stroke="#000000" points="3805.1521,-185.5001 3815.1521,-182 3805.1521,-178.5001 3805.1521,-185.5001"/>
</g>
<!-- AuthDService -->
<g id="node43" class="node">
<title>AuthDService</title>
<ellipse fill="#fdb462" stroke="#000000" cx="288" cy="-104" rx="66.0512" ry="18"/>
<text text-anchor="middle" x="288" y="-99.8" font-family="Times,serif" font-size="14.00" fill="#000000">AuthDService</text>
</g>
<!-- AuthDService&#45;&gt;AppModule -->
<g id="edge42" class="edge">
<title>AuthDService&#45;&gt;AppModule</title>
<path fill="none" stroke="#000000" d="M288,-122.1532C288,-145.7566 288,-184 288,-184 288,-184 3805.0604,-184 3805.0604,-184"/>
<polygon fill="#000000" stroke="#000000" points="3805.0604,-187.5001 3815.0604,-184 3805.0604,-180.5001 3805.0604,-187.5001"/>
</g>
<!-- ContentREAService -->
<g id="node44" class="node">
<title>ContentREAService</title>
<ellipse fill="#fdb462" stroke="#000000" cx="114" cy="-104" rx="89.7653" ry="18"/>
<text text-anchor="middle" x="114" y="-99.8" font-family="Times,serif" font-size="14.00" fill="#000000">ContentREAService</text>
</g>
<!-- ContentREAService&#45;&gt;AppModule -->
<g id="edge43" class="edge">
<title>ContentREAService&#45;&gt;AppModule</title>
<path fill="none" stroke="#000000" d="M114,-122.1985C114,-146.3563 114,-186 114,-186 114,-186 3805.285,-186 3805.285,-186"/>
<polygon fill="#000000" stroke="#000000" points="3805.2851,-189.5001 3815.285,-186 3805.285,-182.5001 3805.2851,-189.5001"/>
</g>
</g>
</svg>
