<?xml version="1.0" encoding="UTF-8" standalone="no"?>
<!DOCTYPE svg PUBLIC "-//W3C//DTD SVG 1.1//EN"
 "http://www.w3.org/Graphics/SVG/1.1/DTD/svg11.dtd">
<!-- Generated by graphviz version 2.40.1 (20161225.0304)
 -->
<!-- Title: dependencies Pages: 1 -->
<svg width="4959pt" height="284pt"
 viewBox="0.00 0.00 4959.00 284.00" xmlns="http://www.w3.org/2000/svg" xmlns:xlink="http://www.w3.org/1999/xlink">
<g id="graph0" class="graph" transform="scale(1 1) rotate(0) translate(4 280)">
<title>dependencies</title>
<polygon fill="#ffffff" stroke="transparent" points="-4,4 -4,-280 4955,-280 4955,4 -4,4"/>
<text text-anchor="start" x="2454.5091" y="-42.4" font-family="sans-serif" font-weight="bold" font-size="14.00" fill="#000000">Legend</text>
<polygon fill="#ffffb3" stroke="transparent" points="2241.5,-10 2241.5,-30 2261.5,-30 2261.5,-10 2241.5,-10"/>
<text text-anchor="start" x="2265.129" y="-15.4" font-family="sans-serif" font-size="14.00" fill="#000000"> &#160;Declarations</text>
<polygon fill="#8dd3c7" stroke="transparent" points="2354.5,-10 2354.5,-30 2374.5,-30 2374.5,-10 2354.5,-10"/>
<text text-anchor="start" x="2378.2251" y="-15.4" font-family="sans-serif" font-size="14.00" fill="#000000"> &#160;Module</text>
<polygon fill="#80b1d3" stroke="transparent" points="2440.5,-10 2440.5,-30 2460.5,-30 2460.5,-10 2440.5,-10"/>
<text text-anchor="start" x="2464.2812" y="-15.4" font-family="sans-serif" font-size="14.00" fill="#000000"> &#160;Bootstrap</text>
<polygon fill="#fdb462" stroke="transparent" points="2537.5,-10 2537.5,-30 2557.5,-30 2557.5,-10 2537.5,-10"/>
<text text-anchor="start" x="2561.1732" y="-15.4" font-family="sans-serif" font-size="14.00" fill="#000000"> &#160;Providers</text>
<polygon fill="#fb8072" stroke="transparent" points="2633.5,-10 2633.5,-30 2653.5,-30 2653.5,-10 2633.5,-10"/>
<text text-anchor="start" x="2657.2258" y="-15.4" font-family="sans-serif" font-size="14.00" fill="#000000"> &#160;Exports</text>
<g id="clust1" class="cluster">
<title>cluster_FCModule</title>
<polygon fill="none" stroke="#000000" stroke-dasharray="1,5" points="8,-70 8,-268 4943,-268 4943,-70 8,-70"/>
</g>
<g id="clust2" class="cluster">
<title>cluster_FCModule_declarations</title>
<polygon fill="none" stroke="#000000" points="540,-78 540,-130 4935,-130 4935,-78 540,-78"/>
</g>
<g id="clust27" class="cluster">
<title>cluster_FCModule_imports</title>
<polygon fill="none" stroke="#000000" points="394,-78 394,-130 532,-130 532,-78 394,-78"/>
</g>
<g id="clust29" class="cluster">
<title>cluster_FCModule_bootstrap</title>
<polygon fill="none" stroke="#000000" points="2450,-208 2450,-260 2574,-260 2574,-208 2450,-208"/>
</g>
<g id="clust30" class="cluster">
<title>cluster_FCModule_providers</title>
<polygon fill="none" stroke="#000000" points="16,-78 16,-130 386,-130 386,-78 16,-78"/>
</g>
<!-- AdministrarDocenteComponent -->
<g id="node1" class="node">
<title>AdministrarDocenteComponent</title>
<polygon fill="#ffffb3" stroke="#000000" points="4926.6232,-122 4731.3768,-122 4731.3768,-86 4926.6232,-86 4926.6232,-122"/>
<text text-anchor="middle" x="4829" y="-99.8" font-family="Times,serif" font-size="14.00" fill="#000000">AdministrarDocenteComponent</text>
</g>
<!-- FCModule -->
<g id="node25" class="node">
<title>FCModule</title>
<polygon fill="#8dd3c7" stroke="#000000" points="2550.1697,-187 2547.1697,-191 2526.1697,-191 2523.1697,-187 2473.8303,-187 2473.8303,-151 2550.1697,-151 2550.1697,-187"/>
<text text-anchor="middle" x="2512" y="-164.8" font-family="Times,serif" font-size="14.00" fill="#000000">FCModule</text>
</g>
<!-- AdministrarDocenteComponent&#45;&gt;FCModule -->
<g id="edge1" class="edge">
<title>AdministrarDocenteComponent&#45;&gt;FCModule</title>
<path fill="none" stroke="#000000" d="M4829,-122.3802C4829,-146.2785 4829,-185 4829,-185 4829,-185 2560.2827,-185 2560.2827,-185"/>
<polygon fill="#000000" stroke="#000000" points="2560.2828,-181.5001 2550.2827,-185 2560.2827,-188.5001 2560.2828,-181.5001"/>
</g>
<!-- AppComponent -->
<g id="node2" class="node">
<title>AppComponent</title>
<polygon fill="#ffffb3" stroke="#000000" points="4712.9399,-122 4607.0601,-122 4607.0601,-86 4712.9399,-86 4712.9399,-122"/>
<text text-anchor="middle" x="4660" y="-99.8" font-family="Times,serif" font-size="14.00" fill="#000000">AppComponent</text>
</g>
<!-- AppComponent&#45;&gt;FCModule -->
<g id="edge2" class="edge">
<title>AppComponent&#45;&gt;FCModule</title>
<path fill="none" stroke="#000000" d="M4660,-122.0908C4660,-145.1328 4660,-182 4660,-182 4660,-182 2560.1942,-182 2560.1942,-182"/>
<polygon fill="#000000" stroke="#000000" points="2560.1942,-178.5001 2550.1942,-182 2560.1942,-185.5001 2560.1942,-178.5001"/>
</g>
<!-- AuthDService -->
<g id="node3" class="node">
<title>AuthDService</title>
<ellipse fill="#ffffb3" stroke="#000000" cx="4523" cy="-104" rx="66.0512" ry="18"/>
<text text-anchor="middle" x="4523" y="-99.8" font-family="Times,serif" font-size="14.00" fill="#000000">AuthDService</text>
</g>
<!-- AuthDService&#45;&gt;FCModule -->
<g id="edge3" class="edge">
<title>AuthDService&#45;&gt;FCModule</title>
<path fill="none" stroke="#000000" d="M4545.0917,-121.2456C4545.0917,-143.6688 4545.0917,-180 4545.0917,-180 4545.0917,-180 2560.351,-180 2560.351,-180"/>
<polygon fill="#000000" stroke="#000000" points="2560.351,-176.5001 2550.351,-180 2560.3509,-183.5001 2560.351,-176.5001"/>
</g>
<!-- AuthDService&#45;&gt;FCModule -->
<g id="edge28" class="edge">
<title>AuthDService&#45;&gt;FCModule</title>
<path fill="none" stroke="#000000" d="M4500.9083,-121.3C4500.9083,-142.8871 4500.9083,-177 4500.9083,-177 4500.9083,-177 2560.3951,-177 2560.3951,-177"/>
<polygon fill="#000000" stroke="#000000" points="2560.3951,-173.5001 2550.3951,-177 2560.395,-180.5001 2560.3951,-173.5001"/>
</g>
<!-- BorrarActividadComponent -->
<g id="node4" class="node">
<title>BorrarActividadComponent</title>
<polygon fill="#ffffb3" stroke="#000000" points="4438.573,-122 4265.427,-122 4265.427,-86 4438.573,-86 4438.573,-122"/>
<text text-anchor="middle" x="4352" y="-99.8" font-family="Times,serif" font-size="14.00" fill="#000000">BorrarActividadComponent</text>
</g>
<!-- BorrarActividadComponent&#45;&gt;FCModule -->
<g id="edge4" class="edge">
<title>BorrarActividadComponent&#45;&gt;FCModule</title>
<path fill="none" stroke="#000000" d="M4352,-122.2843C4352,-143.3211 4352,-175 4352,-175 4352,-175 2560.431,-175 2560.431,-175"/>
<polygon fill="#000000" stroke="#000000" points="2560.4311,-171.5001 2550.431,-175 2560.431,-178.5001 2560.4311,-171.5001"/>
</g>
<!-- BorrarContenidoComponent -->
<g id="node5" class="node">
<title>BorrarContenidoComponent</title>
<polygon fill="#ffffb3" stroke="#000000" points="4247.1979,-122 4070.8021,-122 4070.8021,-86 4247.1979,-86 4247.1979,-122"/>
<text text-anchor="middle" x="4159" y="-99.8" font-family="Times,serif" font-size="14.00" fill="#000000">BorrarContenidoComponent</text>
</g>
<!-- BorrarContenidoComponent&#45;&gt;FCModule -->
<g id="edge5" class="edge">
<title>BorrarContenidoComponent&#45;&gt;FCModule</title>
<path fill="none" stroke="#000000" d="M4159,-122.2228C4159,-142.3652 4159,-172 4159,-172 4159,-172 2560.2874,-172 2560.2874,-172"/>
<polygon fill="#000000" stroke="#000000" points="2560.2874,-168.5001 2550.2874,-172 2560.2874,-175.5001 2560.2874,-168.5001"/>
</g>
<!-- BusquedaComponent -->
<g id="node6" class="node">
<title>BusquedaComponent</title>
<polygon fill="#ffffb3" stroke="#000000" points="4053.0436,-122 3916.9564,-122 3916.9564,-86 4053.0436,-86 4053.0436,-122"/>
<text text-anchor="middle" x="3985" y="-99.8" font-family="Times,serif" font-size="14.00" fill="#000000">BusquedaComponent</text>
</g>
<!-- BusquedaComponent&#45;&gt;FCModule -->
<g id="edge6" class="edge">
<title>BusquedaComponent&#45;&gt;FCModule</title>
<path fill="none" stroke="#000000" d="M3985,-122.1061C3985,-141.3391 3985,-169 3985,-169 3985,-169 2560.266,-169 2560.266,-169"/>
<polygon fill="#000000" stroke="#000000" points="2560.266,-165.5001 2550.266,-169 2560.266,-172.5001 2560.266,-165.5001"/>
</g>
<!-- BusquedaVisitanteComponent -->
<g id="node7" class="node">
<title>BusquedaVisitanteComponent</title>
<polygon fill="#ffffb3" stroke="#000000" points="3898.5856,-122 3711.4144,-122 3711.4144,-86 3898.5856,-86 3898.5856,-122"/>
<text text-anchor="middle" x="3805" y="-99.8" font-family="Times,serif" font-size="14.00" fill="#000000">BusquedaVisitanteComponent</text>
</g>
<!-- BusquedaVisitanteComponent&#45;&gt;FCModule -->
<g id="edge7" class="edge">
<title>BusquedaVisitanteComponent&#45;&gt;FCModule</title>
<path fill="none" stroke="#000000" d="M3805,-122.2222C3805,-140.8285 3805,-167 3805,-167 3805,-167 2560.3461,-167 2560.3461,-167"/>
<polygon fill="#000000" stroke="#000000" points="2560.3462,-163.5001 2550.3461,-167 2560.3461,-170.5001 2560.3462,-163.5001"/>
</g>
<!-- CrearActividadComponent -->
<g id="node8" class="node">
<title>CrearActividadComponent</title>
<polygon fill="#ffffb3" stroke="#000000" points="3693.6274,-122 3526.3726,-122 3526.3726,-86 3693.6274,-86 3693.6274,-122"/>
<text text-anchor="middle" x="3610" y="-99.8" font-family="Times,serif" font-size="14.00" fill="#000000">CrearActividadComponent</text>
</g>
<!-- CrearActividadComponent&#45;&gt;FCModule -->
<g id="edge8" class="edge">
<title>CrearActividadComponent&#45;&gt;FCModule</title>
<path fill="none" stroke="#000000" d="M3610,-122.002C3610,-139.6754 3610,-164 3610,-164 3610,-164 2560.4346,-164 2560.4346,-164"/>
<polygon fill="#000000" stroke="#000000" points="2560.4346,-160.5001 2550.4346,-164 2560.4346,-167.5001 2560.4346,-160.5001"/>
</g>
<!-- DudasComponent -->
<g id="node9" class="node">
<title>DudasComponent</title>
<polygon fill="#ffffb3" stroke="#000000" points="3508.5982,-122 3391.4018,-122 3391.4018,-86 3508.5982,-86 3508.5982,-122"/>
<text text-anchor="middle" x="3450" y="-99.8" font-family="Times,serif" font-size="14.00" fill="#000000">DudasComponent</text>
</g>
<!-- DudasComponent&#45;&gt;FCModule -->
<g id="edge9" class="edge">
<title>DudasComponent&#45;&gt;FCModule</title>
<path fill="none" stroke="#000000" d="M3450,-122.0336C3450,-139.0597 3450,-162 3450,-162 3450,-162 2560.2254,-162 2560.2254,-162"/>
<polygon fill="#000000" stroke="#000000" points="2560.2255,-158.5001 2550.2254,-162 2560.2254,-165.5001 2560.2255,-158.5001"/>
</g>
<!-- FooterComponent -->
<g id="node10" class="node">
<title>FooterComponent</title>
<polygon fill="#ffffb3" stroke="#000000" points="3373.8809,-122 3256.1191,-122 3256.1191,-86 3373.8809,-86 3373.8809,-122"/>
<text text-anchor="middle" x="3315" y="-99.8" font-family="Times,serif" font-size="14.00" fill="#000000">FooterComponent</text>
</g>
<!-- FooterComponent&#45;&gt;FCModule -->
<g id="edge10" class="edge">
<title>FooterComponent&#45;&gt;FCModule</title>
<path fill="none" stroke="#000000" d="M3315,-122.0091C3315,-138.0494 3315,-159 3315,-159 3315,-159 2560.1901,-159 2560.1901,-159"/>
<polygon fill="#000000" stroke="#000000" points="2560.1902,-155.5001 2550.1901,-159 2560.1901,-162.5001 2560.1902,-155.5001"/>
</g>
<!-- GestionarColegioAdminComponent -->
<g id="node11" class="node">
<title>GestionarColegioAdminComponent</title>
<polygon fill="#ffffb3" stroke="#000000" points="3238.4748,-122 3019.5252,-122 3019.5252,-86 3238.4748,-86 3238.4748,-122"/>
<text text-anchor="middle" x="3129" y="-99.8" font-family="Times,serif" font-size="14.00" fill="#000000">GestionarColegioAdminComponent</text>
</g>
<!-- GestionarColegioAdminComponent&#45;&gt;FCModule -->
<g id="edge11" class="edge">
<title>GestionarColegioAdminComponent&#45;&gt;FCModule</title>
<path fill="none" stroke="#000000" d="M3129,-122.2396C3129,-137.5706 3129,-157 3129,-157 3129,-157 2560.5961,-157 2560.5961,-157"/>
<polygon fill="#000000" stroke="#000000" points="2560.5961,-153.5001 2550.5961,-157 2560.5961,-160.5001 2560.5961,-153.5001"/>
</g>
<!-- GestionarCompetenciasAdminComponent -->
<g id="node12" class="node">
<title>GestionarCompetenciasAdminComponent</title>
<polygon fill="#ffffb3" stroke="#000000" points="3001.9538,-122 2748.0462,-122 2748.0462,-86 3001.9538,-86 3001.9538,-122"/>
<text text-anchor="middle" x="2875" y="-99.8" font-family="Times,serif" font-size="14.00" fill="#000000">GestionarCompetenciasAdminComponent</text>
</g>
<!-- GestionarCompetenciasAdminComponent&#45;&gt;FCModule -->
<g id="edge12" class="edge">
<title>GestionarCompetenciasAdminComponent&#45;&gt;FCModule</title>
<path fill="none" stroke="#000000" d="M2875,-122.0511C2875,-136.373 2875,-154 2875,-154 2875,-154 2560.5037,-154 2560.5037,-154"/>
<polygon fill="#000000" stroke="#000000" points="2560.5037,-150.5001 2550.5037,-154 2560.5037,-157.5001 2560.5037,-150.5001"/>
</g>
<!-- GestionarUsuariosAdminComponent -->
<g id="node13" class="node">
<title>GestionarUsuariosAdminComponent</title>
<polygon fill="#ffffb3" stroke="#000000" points="2730.4044,-122 2505.5956,-122 2505.5956,-86 2730.4044,-86 2730.4044,-122"/>
<text text-anchor="middle" x="2618" y="-99.8" font-family="Times,serif" font-size="14.00" fill="#000000">GestionarUsuariosAdminComponent</text>
</g>
<!-- GestionarUsuariosAdminComponent&#45;&gt;FCModule -->
<g id="edge13" class="edge">
<title>GestionarUsuariosAdminComponent&#45;&gt;FCModule</title>
<path fill="none" stroke="#000000" d="M2528.0663,-122.1061C2528.0663,-122.1061 2528.0663,-140.991 2528.0663,-140.991"/>
<polygon fill="#000000" stroke="#000000" points="2524.5663,-140.9909 2528.0663,-150.991 2531.5663,-140.991 2524.5663,-140.9909"/>
</g>
<!-- HeaderAdminComponent -->
<g id="node14" class="node">
<title>HeaderAdminComponent</title>
<polygon fill="#ffffb3" stroke="#000000" points="2487.1316,-122 2326.8684,-122 2326.8684,-86 2487.1316,-86 2487.1316,-122"/>
<text text-anchor="middle" x="2407" y="-99.8" font-family="Times,serif" font-size="14.00" fill="#000000">HeaderAdminComponent</text>
</g>
<!-- HeaderAdminComponent&#45;&gt;FCModule -->
<g id="edge14" class="edge">
<title>HeaderAdminComponent&#45;&gt;FCModule</title>
<path fill="none" stroke="#000000" d="M2480.4906,-122.1061C2480.4906,-122.1061 2480.4906,-140.991 2480.4906,-140.991"/>
<polygon fill="#000000" stroke="#000000" points="2476.9906,-140.9909 2480.4906,-150.991 2483.9906,-140.991 2476.9906,-140.9909"/>
</g>
<!-- HeaderComponent -->
<g id="node15" class="node">
<title>HeaderComponent</title>
<polygon fill="#ffffb3" stroke="#000000" points="2308.7437,-122 2187.2563,-122 2187.2563,-86 2308.7437,-86 2308.7437,-122"/>
<text text-anchor="middle" x="2248" y="-99.8" font-family="Times,serif" font-size="14.00" fill="#000000">HeaderComponent</text>
</g>
<!-- HeaderComponent&#45;&gt;FCModule -->
<g id="edge15" class="edge">
<title>HeaderComponent&#45;&gt;FCModule</title>
<path fill="none" stroke="#000000" d="M2248,-122.0511C2248,-136.373 2248,-154 2248,-154 2248,-154 2463.6121,-154 2463.6121,-154"/>
<polygon fill="#000000" stroke="#000000" points="2463.6122,-157.5001 2473.6121,-154 2463.6121,-150.5001 2463.6122,-157.5001"/>
</g>
<!-- HeaderVisitanteComponent -->
<g id="node16" class="node">
<title>HeaderVisitanteComponent</title>
<polygon fill="#ffffb3" stroke="#000000" points="2169.2864,-122 1996.7136,-122 1996.7136,-86 2169.2864,-86 2169.2864,-122"/>
<text text-anchor="middle" x="2083" y="-99.8" font-family="Times,serif" font-size="14.00" fill="#000000">HeaderVisitanteComponent</text>
</g>
<!-- HeaderVisitanteComponent&#45;&gt;FCModule -->
<g id="edge16" class="edge">
<title>HeaderVisitanteComponent&#45;&gt;FCModule</title>
<path fill="none" stroke="#000000" d="M2083,-122.2396C2083,-137.5706 2083,-157 2083,-157 2083,-157 2463.5516,-157 2463.5516,-157"/>
<polygon fill="#000000" stroke="#000000" points="2463.5516,-160.5001 2473.5516,-157 2463.5515,-153.5001 2463.5516,-160.5001"/>
</g>
<!-- InfromacionDocenteComponent -->
<g id="node17" class="node">
<title>InfromacionDocenteComponent</title>
<polygon fill="#ffffb3" stroke="#000000" points="1978.6657,-122 1781.3343,-122 1781.3343,-86 1978.6657,-86 1978.6657,-122"/>
<text text-anchor="middle" x="1880" y="-99.8" font-family="Times,serif" font-size="14.00" fill="#000000">InfromacionDocenteComponent</text>
</g>
<!-- InfromacionDocenteComponent&#45;&gt;FCModule -->
<g id="edge17" class="edge">
<title>InfromacionDocenteComponent&#45;&gt;FCModule</title>
<path fill="none" stroke="#000000" d="M1880,-122.0091C1880,-138.0494 1880,-159 1880,-159 1880,-159 2463.4169,-159 2463.4169,-159"/>
<polygon fill="#000000" stroke="#000000" points="2463.417,-162.5001 2473.4169,-159 2463.4169,-155.5001 2463.417,-162.5001"/>
</g>
<!-- InicioAdminComponent -->
<g id="node18" class="node">
<title>InicioAdminComponent</title>
<polygon fill="#ffffb3" stroke="#000000" points="1763.3766,-122 1610.6234,-122 1610.6234,-86 1763.3766,-86 1763.3766,-122"/>
<text text-anchor="middle" x="1687" y="-99.8" font-family="Times,serif" font-size="14.00" fill="#000000">InicioAdminComponent</text>
</g>
<!-- InicioAdminComponent&#45;&gt;FCModule -->
<g id="edge18" class="edge">
<title>InicioAdminComponent&#45;&gt;FCModule</title>
<path fill="none" stroke="#000000" d="M1687,-122.0336C1687,-139.0597 1687,-162 1687,-162 1687,-162 2463.5895,-162 2463.5895,-162"/>
<polygon fill="#000000" stroke="#000000" points="2463.5896,-165.5001 2473.5895,-162 2463.5895,-158.5001 2463.5896,-165.5001"/>
</g>
<!-- InicioProfesoresComponent -->
<g id="node19" class="node">
<title>InicioProfesoresComponent</title>
<polygon fill="#ffffb3" stroke="#000000" points="1592.5716,-122 1419.4284,-122 1419.4284,-86 1592.5716,-86 1592.5716,-122"/>
<text text-anchor="middle" x="1506" y="-99.8" font-family="Times,serif" font-size="14.00" fill="#000000">InicioProfesoresComponent</text>
</g>
<!-- InicioProfesoresComponent&#45;&gt;FCModule -->
<g id="edge19" class="edge">
<title>InicioProfesoresComponent&#45;&gt;FCModule</title>
<path fill="none" stroke="#000000" d="M1506,-122.002C1506,-139.6754 1506,-164 1506,-164 1506,-164 2463.792,-164 2463.792,-164"/>
<polygon fill="#000000" stroke="#000000" points="2463.7921,-167.5001 2473.792,-164 2463.792,-160.5001 2463.7921,-167.5001"/>
</g>
<!-- LoginComponent -->
<g id="node20" class="node">
<title>LoginComponent</title>
<polygon fill="#ffffb3" stroke="#000000" points="1401.2758,-122 1286.7242,-122 1286.7242,-86 1401.2758,-86 1401.2758,-122"/>
<text text-anchor="middle" x="1344" y="-99.8" font-family="Times,serif" font-size="14.00" fill="#000000">LoginComponent</text>
</g>
<!-- LoginComponent&#45;&gt;FCModule -->
<g id="edge20" class="edge">
<title>LoginComponent&#45;&gt;FCModule</title>
<path fill="none" stroke="#000000" d="M1344,-122.2222C1344,-140.8285 1344,-167 1344,-167 1344,-167 2463.8026,-167 2463.8026,-167"/>
<polygon fill="#000000" stroke="#000000" points="2463.8026,-170.5001 2473.8026,-167 2463.8026,-163.5001 2463.8026,-170.5001"/>
</g>
<!-- MetricasComponent -->
<g id="node21" class="node">
<title>MetricasComponent</title>
<polygon fill="#ffffb3" stroke="#000000" points="1268.3076,-122 1137.6924,-122 1137.6924,-86 1268.3076,-86 1268.3076,-122"/>
<text text-anchor="middle" x="1203" y="-99.8" font-family="Times,serif" font-size="14.00" fill="#000000">MetricasComponent</text>
</g>
<!-- MetricasComponent&#45;&gt;FCModule -->
<g id="edge21" class="edge">
<title>MetricasComponent&#45;&gt;FCModule</title>
<path fill="none" stroke="#000000" d="M1203,-122.1061C1203,-141.3391 1203,-169 1203,-169 1203,-169 2463.533,-169 2463.533,-169"/>
<polygon fill="#000000" stroke="#000000" points="2463.5331,-172.5001 2473.533,-169 2463.533,-165.5001 2463.5331,-172.5001"/>
</g>
<!-- ModificarActividadComponent -->
<g id="node22" class="node">
<title>ModificarActividadComponent</title>
<polygon fill="#ffffb3" stroke="#000000" points="1120.0168,-122 927.9832,-122 927.9832,-86 1120.0168,-86 1120.0168,-122"/>
<text text-anchor="middle" x="1024" y="-99.8" font-family="Times,serif" font-size="14.00" fill="#000000">ModificarActividadComponent</text>
</g>
<!-- ModificarActividadComponent&#45;&gt;FCModule -->
<g id="edge22" class="edge">
<title>ModificarActividadComponent&#45;&gt;FCModule</title>
<path fill="none" stroke="#000000" d="M1024,-122.2228C1024,-142.3652 1024,-172 1024,-172 1024,-172 2463.7225,-172 2463.7225,-172"/>
<polygon fill="#000000" stroke="#000000" points="2463.7225,-175.5001 2473.7225,-172 2463.7224,-168.5001 2463.7225,-175.5001"/>
</g>
<!-- RegistroUsuarioComponent -->
<g id="node23" class="node">
<title>RegistroUsuarioComponent</title>
<polygon fill="#ffffb3" stroke="#000000" points="909.587,-122 736.413,-122 736.413,-86 909.587,-86 909.587,-122"/>
<text text-anchor="middle" x="823" y="-99.8" font-family="Times,serif" font-size="14.00" fill="#000000">RegistroUsuarioComponent</text>
</g>
<!-- RegistroUsuarioComponent&#45;&gt;FCModule -->
<g id="edge23" class="edge">
<title>RegistroUsuarioComponent&#45;&gt;FCModule</title>
<path fill="none" stroke="#000000" d="M823,-122.2843C823,-143.3211 823,-175 823,-175 823,-175 2463.5494,-175 2463.5494,-175"/>
<polygon fill="#000000" stroke="#000000" points="2463.5495,-178.5001 2473.5494,-175 2463.5494,-171.5001 2463.5495,-178.5001"/>
</g>
<!-- SubirContenidoComponent -->
<g id="node24" class="node">
<title>SubirContenidoComponent</title>
<polygon fill="#ffffb3" stroke="#000000" points="717.9986,-122 548.0014,-122 548.0014,-86 717.9986,-86 717.9986,-122"/>
<text text-anchor="middle" x="633" y="-99.8" font-family="Times,serif" font-size="14.00" fill="#000000">SubirContenidoComponent</text>
</g>
<!-- SubirContenidoComponent&#45;&gt;FCModule -->
<g id="edge24" class="edge">
<title>SubirContenidoComponent&#45;&gt;FCModule</title>
<path fill="none" stroke="#000000" d="M633,-122.0449C633,-143.6623 633,-177 633,-177 633,-177 2463.6148,-177 2463.6148,-177"/>
<polygon fill="#000000" stroke="#000000" points="2463.6148,-180.5001 2473.6148,-177 2463.6148,-173.5001 2463.6148,-180.5001"/>
</g>
<!-- AppComponent  -->
<g id="node27" class="node">
<title>AppComponent </title>
<polygon fill="#80b1d3" stroke="#000000" points="2566.439,-252 2457.561,-252 2457.561,-216 2566.439,-216 2566.439,-252"/>
<text text-anchor="middle" x="2512" y="-229.8" font-family="Times,serif" font-size="14.00" fill="#000000">AppComponent </text>
</g>
<!-- FCModule&#45;&gt;AppComponent  -->
<g id="edge26" class="edge">
<title>FCModule&#45;&gt;AppComponent </title>
<path fill="none" stroke="#000000" stroke-dasharray="1,5" d="M2512,-187.1061C2512,-187.1061 2512,-205.991 2512,-205.991"/>
<polygon fill="#000000" stroke="#000000" points="2508.5001,-205.9909 2512,-215.991 2515.5001,-205.991 2508.5001,-205.9909"/>
</g>
<!-- FCRoutingModule -->
<g id="node26" class="node">
<title>FCRoutingModule</title>
<polygon fill="#8dd3c7" stroke="#000000" points="523.787,-122 520.787,-126 499.787,-126 496.787,-122 402.213,-122 402.213,-86 523.787,-86 523.787,-122"/>
<text text-anchor="middle" x="463" y="-99.8" font-family="Times,serif" font-size="14.00" fill="#000000">FCRoutingModule</text>
</g>
<!-- FCRoutingModule&#45;&gt;FCModule -->
<g id="edge25" class="edge">
<title>FCRoutingModule&#45;&gt;FCModule</title>
<path fill="none" stroke="#000000" d="M463,-122.0109C463,-144.4852 463,-180 463,-180 463,-180 2463.7973,-180 2463.7973,-180"/>
<polygon fill="#000000" stroke="#000000" points="2463.7974,-183.5001 2473.7973,-180 2463.7973,-176.5001 2463.7974,-183.5001"/>
</g>
<!-- ActividadService -->
<g id="node28" class="node">
<title>ActividadService</title>
<ellipse fill="#fdb462" stroke="#000000" cx="300" cy="-104" rx="78.1462" ry="18"/>
<text text-anchor="middle" x="300" y="-99.8" font-family="Times,serif" font-size="14.00" fill="#000000">ActividadService</text>
</g>
<!-- ActividadService&#45;&gt;FCModule -->
<g id="edge27" class="edge">
<title>ActividadService&#45;&gt;FCModule</title>
<path fill="none" stroke="#000000" d="M300,-122.0908C300,-145.1328 300,-182 300,-182 300,-182 2463.6066,-182 2463.6066,-182"/>
<polygon fill="#000000" stroke="#000000" points="2463.6066,-185.5001 2473.6066,-182 2463.6066,-178.5001 2463.6066,-185.5001"/>
</g>
<!-- ContentREAService -->
<g id="node29" class="node">
<title>ContentREAService</title>
<ellipse fill="#fdb462" stroke="#000000" cx="114" cy="-104" rx="89.7653" ry="18"/>
<text text-anchor="middle" x="114" y="-99.8" font-family="Times,serif" font-size="14.00" fill="#000000">ContentREAService</text>
</g>
<!-- ContentREAService&#45;&gt;FCModule -->
<g id="edge29" class="edge">
<title>ContentREAService&#45;&gt;FCModule</title>
<path fill="none" stroke="#000000" d="M114,-122.3802C114,-146.2785 114,-185 114,-185 114,-185 2463.3619,-185 2463.3619,-185"/>
<polygon fill="#000000" stroke="#000000" points="2463.3619,-188.5001 2473.3619,-185 2463.3618,-181.5001 2463.3619,-188.5001"/>
</g>
</g>
</svg>
